<svg width="24" height="24" viewBox="0 0 24 24" fill="none" xmlns="http://www.w3.org/2000/svg">
<path d="M9.33465 19.8409C9.50122 20.25 10.0012 21.25 12.0012 21.25C14.0012 21.25 14.5012 20.25 14.668 19.8409M4.50895 16.9318C3.50116 16.25 4.24624 15.118 4.50128 14.75C5.09306 13.8961 5.29427 13.2582 5.29427 11.75V10.1017C5.29427 6.04145 8.29712 2.75 12.0013 2.75C15.7601 2.75 18.8071 6.08993 18.8071 10.2099V11.75C18.8071 13.2685 18.9335 13.8957 19.5012 14.75C19.7464 15.1189 20.5012 16.25 19.4947 16.9318C13.9807 17.7901 10.7193 17.8528 4.50895 16.9318Z" stroke="#14161D" stroke-width="1.5" stroke-linecap="round" stroke-linejoin="round"/>
</svg>
