<svg width="110" height="30" viewBox="0 0 110 30" fill="none" xmlns="http://www.w3.org/2000/svg">
<path d="M5.136 13.42L4.08 23.5H0.88L3.216 1.1H16.304L16.016 3.98H6.128L5.424 10.54H13.392L13.104 13.42H5.136ZM22.2655 7.5L20.6015 23.5H17.4975L19.1615 7.5H22.2655ZM19.4175 3.564L19.7695 0.139999H23.1935L22.8415 3.564H19.4175ZM23.7963 23.5L30.3563 15.34L25.6523 7.5H29.1083L32.2443 13.004L36.5323 7.5H39.9883L33.5883 15.34L38.5163 23.5H35.1563L31.7643 17.644L27.1562 23.5H23.7963ZM46.8043 2.38L44.1483 27.66H48.4043L48.1483 29.9H45.0443L41.5883 27.756L44.2443 2.284L48.1803 0.139999H51.2843L51.0603 2.38H46.8043ZM57.0533 23.5L53.5653 21.356L55.7733 0.139999H58.8773L56.7333 20.716H60.5733L60.2853 23.5H57.0533ZM77.2895 21.516L73.3535 23.66H67.1775L63.6895 21.516L64.9695 9.484L68.9055 7.34H75.0815L78.5695 9.484L77.2895 21.516ZM67.9775 10.124L66.8575 20.876H74.2495L75.3695 10.124H67.9775ZM96.6803 7.34H97.5123L95.3683 27.756L91.4003 29.9H83.1123L83.4323 27.116H92.3283L92.8723 21.836L90.4723 23.148H85.9603L82.4723 21.004L83.6883 9.484L87.6243 7.34H92.1363L94.2483 8.652L96.6803 7.34ZM85.6403 20.364H93.0323L94.0883 10.124H86.6963L85.6403 20.364ZM104.103 27.66L106.759 2.38H102.503L102.727 0.139999H105.831L109.319 2.284L106.663 27.756L102.695 29.9H99.591L99.847 27.66H104.103Z" fill="black"/>
</svg>
