<svg width="36" height="36" viewBox="0 0 36 36" fill="none" xmlns="http://www.w3.org/2000/svg">
<path d="M36 18C36 27.9411 27.9411 36 18 36C8.05887 36 0 27.9411 0 18C0 8.05887 8.05887 0 18 0C27.9411 0 36 8.05887 36 18Z" fill="#F4F4F4"/>
<path d="M18.0166 18.0059C24.8416 18.0059 30.6004 22.5645 32.418 28.8027C29.1341 33.1759 23.9065 36.0059 18.0166 36.0059C12.1265 36.0059 6.89809 33.1762 3.61426 28.8027C5.43176 22.5644 11.1915 18.0059 18.0166 18.0059Z" fill="#BEBEBE"/>
<path d="M18.0166 6.00586C20.778 6.00586 23.0166 8.24444 23.0166 11.0059C23.0166 13.7673 20.778 16.0059 18.0166 16.0059C15.2552 16.0059 13.0166 13.7673 13.0166 11.0059C13.0166 8.24444 15.2552 6.00586 18.0166 6.00586Z" fill="#BEBEBE"/>
</svg>
