<svg width="24" height="24" viewBox="0 0 24 24" fill="none" xmlns="http://www.w3.org/2000/svg">
<path d="M9.23278 19.2555L3 21L4.68204 14.9951C4.72357 14.8468 4.8 14.7087 4.90313 14.5944C8.98128 10.0732 11.4979 7.61199 16.1581 3.41657C16.287 3.2847 16.4412 3.17992 16.6112 3.10838C16.7812 3.03685 16.9639 3 17.1484 3C17.3329 3 17.5156 3.03685 17.6857 3.10838C17.8556 3.17992 18.0098 3.2847 18.1387 3.41657L20.5903 5.88102C20.7201 6.00973 20.8231 6.16287 20.8935 6.33157C20.9638 6.50029 21 6.68126 21 6.86403C21 7.0468 20.9638 7.22778 20.8935 7.39649C20.8231 7.56521 20.7201 7.71834 20.5903 7.84705C16.3696 12.449 13.9447 14.976 9.23278 19.2555Z" stroke="#14161D" stroke-width="1.5" stroke-linecap="round" stroke-linejoin="round"/>
<path d="M15 4.5L19.5 9" stroke="#14161D" stroke-width="1.5"/>
</svg>
